<svg width="37" height="37" viewBox="0 0 37 37" fill="none" xmlns="http://www.w3.org/2000/svg">
<path d="M12.3756 29.4945C12.3756 29.643 12.204 29.7617 11.9877 29.7617C11.7415 29.784 11.57 29.6652 11.57 29.4945C11.57 29.3461 11.7415 29.2273 11.9579 29.2273C12.1817 29.2051 12.3756 29.3238 12.3756 29.4945ZM10.0556 29.1605C10.0034 29.309 10.1526 29.4797 10.3764 29.5242C10.5704 29.5984 10.7942 29.5242 10.8389 29.3758C10.8837 29.2273 10.7419 29.0566 10.5181 28.9898C10.3242 28.9379 10.1079 29.0121 10.0556 29.1605ZM13.3528 29.0344C13.1365 29.0863 12.9873 29.2273 13.0097 29.398C13.0321 29.5465 13.226 29.643 13.4498 29.591C13.6661 29.5391 13.8153 29.398 13.7929 29.2496C13.7706 29.1086 13.5692 29.0121 13.3528 29.0344ZM18.2613 0.59375C7.91472 0.59375 0 8.40898 0 18.7031C0 26.934 5.20686 33.9773 12.6442 36.4562C13.599 36.627 13.9347 36.0406 13.9347 35.5582C13.9347 35.098 13.9123 32.5598 13.9123 31.0012C13.9123 31.0012 8.69053 32.1145 7.59395 28.7895C7.59395 28.7895 6.74355 26.6297 5.52016 26.073C5.52016 26.073 3.8119 24.9078 5.63952 24.9301C5.63952 24.9301 7.49698 25.0785 8.51895 26.8449C10.1526 29.7098 12.8903 28.8859 13.9571 28.3961C14.1286 27.2086 14.6135 26.3848 15.1506 25.8949C10.9806 25.4348 6.77339 24.8336 6.77339 17.6938C6.77339 15.6527 7.34032 14.6285 8.53387 13.3223C8.33992 12.8398 7.70585 10.8508 8.72782 8.28281C10.2869 7.80039 13.875 10.2867 13.875 10.2867C15.3669 9.87109 16.9708 9.65586 18.5597 9.65586C20.1486 9.65586 21.7524 9.87109 23.2444 10.2867C23.2444 10.2867 26.8325 7.79297 28.3915 8.28281C29.4135 10.8582 28.7794 12.8398 28.5855 13.3223C29.779 14.6359 30.5101 15.6602 30.5101 17.6938C30.5101 24.8559 26.1163 25.4273 21.9464 25.8949C22.6327 26.4812 23.2145 27.5945 23.2145 29.3387C23.2145 31.8398 23.1921 34.9348 23.1921 35.5434C23.1921 36.0258 23.5353 36.6121 24.4827 36.4414C31.9423 33.9773 37 26.934 37 18.7031C37 8.40898 28.6079 0.59375 18.2613 0.59375ZM7.25081 26.1918C7.15383 26.266 7.17621 26.4367 7.30302 26.5777C7.42238 26.6965 7.59395 26.7484 7.69093 26.652C7.7879 26.5777 7.76552 26.407 7.63871 26.266C7.51936 26.1473 7.34778 26.0953 7.25081 26.1918ZM6.44516 25.5906C6.39294 25.6871 6.46754 25.8059 6.61673 25.8801C6.73609 25.9543 6.88528 25.932 6.9375 25.8281C6.98972 25.7316 6.91512 25.6129 6.76593 25.5387C6.61673 25.4941 6.49738 25.5164 6.44516 25.5906ZM8.8621 28.2328C8.74274 28.3293 8.7875 28.552 8.95907 28.693C9.13065 28.8637 9.34698 28.8859 9.44395 28.7672C9.54093 28.6707 9.49617 28.448 9.34698 28.307C9.18286 28.1363 8.95907 28.1141 8.8621 28.2328ZM8.01169 27.1418C7.89234 27.216 7.89234 27.409 8.01169 27.5797C8.13105 27.7504 8.33246 27.8246 8.42944 27.7504C8.54879 27.6539 8.54879 27.4609 8.42944 27.2902C8.325 27.1195 8.13105 27.0453 8.01169 27.1418Z" fill="white"/>
</svg>
