<svg width="32" height="33" viewBox="0 0 32 33" fill="none" xmlns="http://www.w3.org/2000/svg">
<path d="M0 0.3125V32.6875H32V0.3125H0ZM17.4143 25.5621C17.4143 28.7129 15.5857 30.151 12.9214 30.151C10.5143 30.151 9.12143 28.8936 8.40714 27.3687L10.8571 25.8729C11.3286 26.7184 11.7571 27.4338 12.7929 27.4338C13.7786 27.4338 14.4071 27.0436 14.4071 25.5187V15.1775H17.4143V25.5621ZM24.5286 30.151C21.7357 30.151 19.9286 28.8068 19.05 27.0436L21.5 25.6127C22.1429 26.675 22.9857 27.4627 24.4643 27.4627C25.7071 27.4627 26.5071 26.834 26.5071 25.9596C26.5071 24.9189 25.6929 24.5504 24.3143 23.9361L23.5643 23.6109C21.3929 22.6787 19.9571 21.5008 19.9571 19.0221C19.9571 16.7385 21.6786 15.0041 24.3571 15.0041C26.2714 15.0041 27.6429 15.6762 28.6286 17.4395L26.2857 18.957C25.7714 18.0248 25.2143 17.6562 24.35 17.6562C23.4714 17.6562 22.9143 18.2199 22.9143 18.957C22.9143 19.8676 23.4714 20.2361 24.7643 20.807L25.5143 21.1322C28.0714 22.2379 29.5071 23.3725 29.5071 25.9162C29.5071 28.6479 27.3786 30.151 24.5286 30.151Z" fill="white"/>
</svg>
