<svg width="19" height="22" viewBox="0 0 19 22" fill="none" xmlns="http://www.w3.org/2000/svg">
<path d="M17.6429 1.375H1.3529C0.606473 1.375 0 1.99805 0 2.76289V19.2371C0 20.002 0.606473 20.625 1.3529 20.625H17.6429C18.3893 20.625 19 20.002 19 19.2371V2.76289C19 1.99805 18.3893 1.375 17.6429 1.375ZM5.74241 17.875H2.92634V8.68828H5.74665V17.875H5.74241ZM4.33437 7.43359C3.43103 7.43359 2.70156 6.69023 2.70156 5.7793C2.70156 4.86836 3.43103 4.125 4.33437 4.125C5.23348 4.125 5.96719 4.86836 5.96719 5.7793C5.96719 6.69453 5.23772 7.43359 4.33437 7.43359ZM16.2984 17.875H13.4824V13.4062C13.4824 12.3406 13.4612 10.9699 12.0192 10.9699C10.5518 10.9699 10.327 12.1301 10.327 13.3289V17.875H7.51094V8.68828H10.2125V9.94297H10.2507C10.6281 9.22109 11.5484 8.46055 12.9183 8.46055C15.7683 8.46055 16.2984 10.3641 16.2984 12.8391V17.875Z" fill="#6880FF"/>
</svg>
