<svg width="35" height="31" viewBox="0 0 35 31" fill="none" xmlns="http://www.w3.org/2000/svg">
<path d="M28.5879 10.1133C28.2188 9.99023 27.8496 9.87402 27.4805 9.76465C27.542 9.51172 27.5967 9.25879 27.6514 9.00586C28.4922 4.93164 27.9385 1.65723 26.0723 0.577148C24.2744 -0.455078 21.3418 0.618164 18.375 3.20215C18.0811 3.45508 17.7939 3.72168 17.5205 3.98828C17.3359 3.81055 17.1445 3.63281 16.9531 3.46191C13.8428 0.700195 10.7256 -0.461914 8.85938 0.625C7.06836 1.66406 6.53516 4.74707 7.28711 8.60254C7.3623 8.98535 7.44434 9.36133 7.54004 9.74414C7.10254 9.86719 6.67188 10.0039 6.26855 10.1475C2.61816 11.4121 0 13.4082 0 15.4727C0 17.6055 2.78906 19.7451 6.58301 21.0439C6.89062 21.1465 7.19824 21.249 7.5127 21.3379C7.41016 21.748 7.32129 22.1514 7.23926 22.5684C6.52148 26.3623 7.08203 29.3701 8.87305 30.4023C10.7188 31.4688 13.8223 30.375 16.8438 27.7295C17.083 27.5176 17.3223 27.2988 17.5615 27.0664C17.8623 27.3604 18.1768 27.6406 18.4912 27.9141C21.417 30.4297 24.3086 31.4482 26.0928 30.416C27.9385 29.3496 28.54 26.1162 27.7607 22.1787C27.6992 21.8779 27.6309 21.5703 27.5557 21.2559C27.7744 21.1943 27.9863 21.126 28.1982 21.0576C32.1426 19.752 35 17.6396 35 15.4727C35 13.4014 32.3066 11.3916 28.5879 10.1133ZM19.3389 4.30957C21.8818 2.09473 24.2539 1.22656 25.334 1.84863C26.4893 2.51172 26.9336 5.19141 26.209 8.71191C26.1611 8.94433 26.1133 9.16992 26.0518 9.39551C24.5342 9.05371 22.9961 8.80762 21.4512 8.6709C20.5625 7.39941 19.5918 6.18262 18.5391 5.04102C18.8057 4.78809 19.0654 4.54883 19.3389 4.30957ZM11.4297 19.0205C11.7783 19.6152 12.1338 20.21 12.5098 20.791C11.4434 20.6748 10.3838 20.5039 9.33789 20.2783C9.63867 19.2939 10.0146 18.2754 10.4521 17.2363C10.7666 17.8379 11.0879 18.4326 11.4297 19.0205ZM9.3584 10.7969C10.3428 10.5781 11.3887 10.4004 12.4756 10.2637C12.1133 10.8311 11.7578 11.4121 11.4229 12C11.0879 12.5811 10.7598 13.1758 10.4521 13.7773C10.0215 12.7588 9.65918 11.7607 9.3584 10.7969ZM11.2314 15.5068C11.6826 14.5635 12.1748 13.6406 12.6943 12.7314C13.2139 11.8223 13.7744 10.9404 14.3623 10.0723C15.3877 9.99707 16.4336 9.95605 17.5 9.95605C18.5664 9.95605 19.6191 9.99707 20.6377 10.0723C21.2188 10.9336 21.7725 11.8154 22.2988 12.7178C22.8252 13.6201 23.3174 14.543 23.7822 15.4795C23.3242 16.4228 22.832 17.3525 22.3057 18.2686C21.7861 19.1777 21.2324 20.0596 20.6514 20.9346C19.6328 21.0098 18.5732 21.0439 17.5 21.0439C16.4268 21.0439 15.3877 21.0098 14.3828 20.9482C13.7881 20.0801 13.2275 19.1914 12.7012 18.2822C12.1748 17.373 11.6895 16.4502 11.2314 15.5068ZM23.5771 19.0068C23.9258 18.4053 24.2539 17.7969 24.5752 17.1816C25.0127 18.1729 25.3955 19.1777 25.7305 20.21C24.6709 20.4492 23.5977 20.6338 22.5176 20.7568C22.8867 20.1826 23.2354 19.5947 23.5771 19.0068ZM24.5615 13.7773C24.2402 13.1758 23.9121 12.5742 23.5703 11.9863C23.2354 11.4053 22.8867 10.8311 22.5244 10.2637C23.625 10.4004 24.6777 10.585 25.6621 10.8105C25.3477 11.8223 24.9785 12.8066 24.5615 13.7773ZM17.5137 6.08691C18.2314 6.86621 18.9082 7.68652 19.5371 8.53418C18.1836 8.47266 16.8232 8.47266 15.4697 8.53418C16.1396 7.65234 16.8301 6.83203 17.5137 6.08691ZM9.58398 1.89648C10.7324 1.22656 13.2822 2.18359 15.9688 4.5625C16.1396 4.71289 16.3105 4.87695 16.4883 5.04102C15.4287 6.18262 14.4512 7.39941 13.5557 8.6709C12.0107 8.80762 10.4795 9.04687 8.96191 9.38183C8.87305 9.0332 8.79785 8.67773 8.72266 8.32227C8.08008 5.01367 8.50391 2.51855 9.58398 1.89648ZM7.90918 19.916C7.62207 19.834 7.3418 19.7451 7.06152 19.6494C5.60547 19.1914 3.95117 18.4668 2.75488 17.5166C2.06445 17.0381 1.59961 16.2998 1.46973 15.4727C1.46973 14.2217 3.62988 12.6221 6.74707 11.5352C7.13672 11.3984 7.5332 11.2754 7.92969 11.1592C8.39453 12.6426 8.95508 14.0986 9.60449 15.5068C8.94824 16.9355 8.38086 18.4121 7.90918 19.916ZM15.8799 26.6152C14.752 27.6475 13.4463 28.4678 12.0244 29.0283C11.2656 29.3906 10.3906 29.4248 9.61133 29.1172C8.52441 28.4883 8.07324 26.0752 8.68848 22.8281C8.76367 22.4453 8.8457 22.0625 8.94141 21.6865C10.4727 22.0146 12.0176 22.2402 13.583 22.3564C14.4854 23.6348 15.4766 24.8584 16.5361 26.0068C16.3174 26.2188 16.0986 26.4238 15.8799 26.6152ZM17.5547 24.9541C16.8574 24.2021 16.1602 23.3682 15.4834 22.4727C16.1396 22.5 16.8164 22.5137 17.5 22.5137C18.2041 22.5137 18.8945 22.5 19.5781 22.4658C18.9492 23.334 18.2725 24.1611 17.5547 24.9541ZM26.4893 27.0049C26.4277 27.8389 26.0176 28.6182 25.3613 29.1445C24.2744 29.7734 21.957 28.9531 19.4551 26.8066C19.168 26.5605 18.8809 26.2939 18.5869 26.0205C19.6328 24.8652 20.5967 23.6416 21.4717 22.3564C23.0371 22.2266 24.5957 21.9873 26.1338 21.6387C26.2021 21.9189 26.2637 22.1992 26.3184 22.4727C26.6533 23.9492 26.708 25.4873 26.4893 27.0049ZM27.7334 19.6562C27.542 19.7178 27.3506 19.7793 27.1523 19.834C26.6738 18.3437 26.0859 16.8877 25.4092 15.4727C26.0654 14.0781 26.6191 12.6426 27.084 11.1729C27.4395 11.2754 27.7812 11.3848 28.1094 11.4941C31.2949 12.5879 33.5303 14.2148 33.5303 15.459C33.5303 16.7988 31.1445 18.5283 27.7334 19.6562ZM17.5 18.6309C19.2295 18.6309 20.6309 17.2295 20.6309 15.5C20.6309 13.7705 19.2295 12.3691 17.5 12.3691C15.7705 12.3691 14.3691 13.7705 14.3691 15.5C14.3691 17.2295 15.7705 18.6309 17.5 18.6309Z" fill="white"/>
</svg>
