<svg width="18" height="19" viewBox="0 0 18 19" fill="none" xmlns="http://www.w3.org/2000/svg">
<path d="M15.304 2.98262C13.6205 1.25996 11.3786 0.3125 8.99598 0.3125C4.07812 0.3125 0.0763393 4.39766 0.0763393 9.41797C0.0763393 11.0217 0.486161 12.5885 1.26562 13.9707L0 18.6875L4.72902 17.4201C6.0308 18.1461 7.49732 18.5275 8.99196 18.5275H8.99598C13.9098 18.5275 18 14.4424 18 9.42207C18 6.98984 16.9875 4.70527 15.304 2.98262ZM8.99598 16.9936C7.66205 16.9936 6.35625 16.6285 5.2192 15.9395L4.95 15.7754L2.14554 16.526L2.89286 13.7328L2.71607 13.4457C1.97277 12.2398 1.58304 10.8494 1.58304 9.41797C1.58304 5.24668 4.90982 1.85059 9 1.85059C10.9808 1.85059 12.8411 2.63809 14.2393 4.06953C15.6375 5.50098 16.4973 7.4 16.4933 9.42207C16.4933 13.5975 13.0821 16.9936 8.99598 16.9936ZM13.0621 11.3252C12.8411 11.2104 11.7442 10.6607 11.5393 10.5869C11.3344 10.509 11.1857 10.4721 11.0371 10.7018C10.8884 10.9314 10.4625 11.44 10.3299 11.5959C10.2013 11.7477 10.0688 11.7682 9.84777 11.6533C8.53795 10.9848 7.67813 10.4598 6.81429 8.94629C6.58527 8.54434 7.0433 8.57305 7.4692 7.70352C7.54152 7.55176 7.50536 7.42051 7.44911 7.30566C7.39286 7.19082 6.94688 6.07109 6.76205 5.61582C6.58125 5.17285 6.39643 5.23438 6.25982 5.22617C6.13125 5.21797 5.98259 5.21797 5.83393 5.21797C5.68527 5.21797 5.4442 5.27539 5.23929 5.50098C5.03437 5.73066 4.45982 6.28027 4.45982 7.4C4.45982 8.51973 5.25938 9.60254 5.36786 9.7543C5.48036 9.90606 6.93884 12.2029 9.17679 13.1914C10.5911 13.8148 11.1455 13.8682 11.8527 13.7615C12.2826 13.6959 13.1705 13.2119 13.3554 12.6787C13.5402 12.1455 13.5402 11.6902 13.4839 11.5959C13.4317 11.4934 13.283 11.4359 13.0621 11.3252Z" fill="#6880FF"/>
</svg>
